# xmcd
#
# Track frame offsets:
#	150
#	12324
#	24729
#	37057
#	49531
#	62051
#	74147
#	86571
#	98006
#	110153
#	122859
#	138453
#	149514
#	162910
#	174919
#	184919
#	195035
#	207135
#	219264
#	231225
#	241798
#	255202
#	267495
#	279337
#	291381
#
# Disc length: 4048 seconds
#
# Revision: 2
# Processed by: cddbd v1.5.1PL2 Copyright (c) Steve Scherf et al.
# Submitted via: EasyCDDAExtractor 9.0.0.1
#
DISCID=720fce19
DTITLE=Fiddlin' Arthur Smith and His Dixieliners - Applachian Stomp Down - Disc 
DTITLE=D
DYEAR=2006
DGENRE=Country
TTITLE0=Lost Train Blues
TTITLE1=Fiddler's Dream
TTITLE2=Blackberry Blossom
TTITLE3=Red Apple Rag
TTITLE4=Cheatham County Breakdown
TTITLE5=Dixon County Blues
TTITLE6=Sugar Tree Stomp
TTITLE7=Chittlin' Cookin' Time In Cheatham County
TTITLE8=Fiddler's Blues
TTITLE9=Take Me Back to tennessee
TTITLE10=Little Darling
TTITLE11=The Girl I Love Don't Pay Me No Mind
TTITLE12=There's More Pretty Girls Than One (Pt.1)
TTITLE13=Dickson County Blues, No.2
TTITLE14=Singing Those House Of David Blues
TTITLE15=PM At Home In The Pen
TTITLE16=Florida Blues
TTITLE17=Indian Creek
TTITLE18=Freight Train Moan
TTITLE19=I'm Bound To Ride
TTITLE20=A Lonesome Day Today
TTITLE21=K.C. Stomp
TTITLE22=Smith's Rag
TTITLE23=Peacock Rag
TTITLE24=Bill Cheatham
EXTD=
EXTT0=
EXTT1=
EXTT2=
EXTT3=
EXTT4=
EXTT5=
EXTT6=
EXTT7=
EXTT8=
EXTT9=
EXTT10=
EXTT11=
EXTT12=
EXTT13=
EXTT14=
EXTT15=
EXTT16=
EXTT17=
EXTT18=
EXTT19=
EXTT20=
EXTT21=
EXTT22=
EXTT23=
EXTT24=
PLAYORDER=
